<svg width="1200" height="628" viewBox="0 0 1200 628" xmlns="http://www.w3.org/2000/svg">
  <defs>
    <pattern id="satori_pattern_id_0" x="0" y="0" width="1" height="1" patternUnits="objectBoundingBox">
      <linearGradient id="satori_biid_0" x1="0" y1="0" x2="0" y2="1">
        <stop offset="0%" stop-color="#dbf4ff" />
        <stop offset="100%" stop-color="#fff1f1" />
      </linearGradient>
      <rect x="0" y="0" width="1200" height="628" fill="url(#satori_biid_0)" />
    </pattern>
  </defs>
  <mask id="satori_om-id">
    <rect x="0" y="0" width="1200" height="628" fill="#fff" />
  </mask>
  <rect x="0" y="0" width="1200" height="628" fill="url(#satori_pattern_id_0)" />
  <clipPath id="satori_bct-id-0">
    <path
      d="M419.5 183.7L431.7 183.7L431.7 241.9L421.1 241.9L395.8 205.3L395.4 205.3L395.4 241.9L383.1 241.9L383.1 183.7L393.9 183.7L419.0 220.3L419.5 220.3L419.5 183.7ZM451.7 241.9L439.6 241.9L439.6 198.2L451.7 198.2L451.7 241.9ZM445.7 192.6L445.7 192.6Q443.0 192.6 441.1 190.8Q439.2 189.0 439.2 186.5L439.2 186.5Q439.2 184.0 441.1 182.2Q443.0 180.4 445.7 180.4L445.7 180.4Q448.4 180.4 450.3 182.2Q452.3 184.0 452.3 186.5L452.3 186.5Q452.3 189.0 450.3 190.8Q448.4 192.6 445.7 192.6ZM479.1 242.7L479.1 242.7Q472.4 242.7 467.6 239.9Q462.8 237.0 460.2 231.9Q457.6 226.9 457.6 220.2L457.6 220.2Q457.6 213.5 460.2 208.5Q462.8 203.4 467.6 200.5Q472.4 197.7 479.1 197.7L479.1 197.7Q484.8 197.7 489.1 199.7Q493.3 201.8 495.8 205.6Q498.3 209.3 498.6 214.4L498.6 214.4L487.2 214.4Q486.7 211.1 484.6 209.1Q482.6 207.1 479.3 207.1L479.3 207.1Q476.4 207.1 474.4 208.6Q472.3 210.1 471.1 213.0Q469.9 215.9 469.9 220.1L469.9 220.1Q469.9 224.2 471.1 227.2Q472.2 230.1 474.3 231.6Q476.4 233.2 479.3 233.2L479.3 233.2Q481.3 233.2 483.0 232.3Q484.7 231.5 485.7 229.8Q486.8 228.2 487.2 225.9L487.2 225.9L498.6 225.9Q498.3 230.9 495.9 234.7Q493.5 238.5 489.2 240.6Q484.9 242.7 479.1 242.7ZM524.1 242.7L524.1 242.7Q517.5 242.7 512.7 239.9Q507.9 237.1 505.2 232.0Q502.6 226.9 502.6 220.2L502.6 220.2Q502.6 213.5 505.2 208.4Q507.9 203.3 512.7 200.5Q517.5 197.7 524.1 197.7L524.1 197.7Q530.7 197.7 535.5 200.5Q540.4 203.3 543.0 208.4Q545.6 213.5 545.6 220.2L545.6 220.2Q545.6 226.9 543.0 232.0Q540.4 237.1 535.5 239.9Q530.7 242.7 524.1 242.7ZM524.2 233.4L524.2 233.4Q527.2 233.4 529.2 231.6Q531.2 229.9 532.2 226.9Q533.3 224.0 533.3 220.1L533.3 220.1Q533.3 216.3 532.2 213.4Q531.2 210.4 529.2 208.6Q527.2 206.9 524.2 206.9L524.2 206.9Q521.1 206.9 519.1 208.6Q517 210.4 516.0 213.4Q514.9 216.3 514.9 220.1L514.9 220.1Q514.9 224.0 516.0 226.9Q517 229.9 519.1 231.6Q521.1 233.4 524.2 233.4Z M580.6 241.9L568.3 241.9L568.3 183.7L606.8 183.7L606.8 193.8L580.6 193.8L580.6 207.7L604.2 207.7L604.2 217.8L580.6 217.8L580.6 241.9ZM624.2 241.9L612.1 241.9L612.1 198.2L623.8 198.2L623.8 205.9L624.3 205.9Q625.5 201.8 628.3 199.7Q631.1 197.6 634.8 197.6L634.8 197.6Q635.7 197.6 636.7 197.7Q637.8 197.8 638.6 198.0L638.6 198.0L638.6 208.8Q637.7 208.5 636.2 208.3Q634.7 208.1 633.4 208.1L633.4 208.1Q630.8 208.1 628.7 209.3Q626.6 210.4 625.4 212.5Q624.2 214.5 624.2 217.2L624.2 217.2L624.2 241.9ZM654.0 242.7L654.0 242.7Q649.8 242.7 646.6 241.2Q643.3 239.8 641.4 236.9Q639.5 234.0 639.5 229.7L639.5 229.7Q639.5 226.1 640.8 223.6Q642.2 221.1 644.5 219.6Q646.8 218.1 649.7 217.3Q652.7 216.6 655.9 216.3L655.9 216.3Q659.7 215.9 662.0 215.5Q664.4 215.1 665.4 214.4Q666.5 213.7 666.5 212.3L666.5 212.3L666.5 212.2Q666.5 209.5 664.8 208.0Q663.1 206.5 660.0 206.5L660.0 206.5Q656.7 206.5 654.8 207.9Q652.9 209.4 652.2 211.5L652.2 211.5L641.0 210.6Q641.9 206.7 644.4 203.7Q646.9 200.8 650.9 199.3Q654.8 197.7 660.1 197.7L660.1 197.7Q663.7 197.7 667.0 198.5Q670.4 199.4 673.0 201.2Q675.6 203.0 677.1 205.8Q678.6 208.6 678.6 212.4L678.6 212.4L678.6 241.9L667.1 241.9L667.1 235.8L666.8 235.8Q665.7 237.9 663.9 239.4Q662.2 241.0 659.7 241.8Q657.2 242.7 654.0 242.7ZM657.5 234.4L657.5 234.4Q660.1 234.4 662.2 233.3Q664.2 232.2 665.4 230.4Q666.6 228.6 666.6 226.3L666.6 226.3L666.6 221.7Q666.0 222.0 665.0 222.3Q664.0 222.6 662.8 222.9Q661.6 223.1 660.4 223.3Q659.1 223.5 658.1 223.6L658.1 223.6Q656.0 223.9 654.4 224.6Q652.8 225.3 652.0 226.4Q651.1 227.6 651.1 229.3L651.1 229.3Q651.1 231.8 652.9 233.1Q654.7 234.4 657.5 234.4ZM698.1 216.7L698.1 216.7L698.1 241.9L686.0 241.9L686.0 198.2L697.5 198.2L697.5 205.9L698.0 205.9Q699.5 202.1 702.9 199.9Q706.3 197.7 711.1 197.7L711.1 197.7Q715.7 197.7 719.1 199.7Q722.5 201.7 724.3 205.3Q726.2 209.0 726.2 214.1L726.2 214.1L726.2 241.9L714.1 241.9L714.1 216.3Q714.1 212.2 712.1 210.0Q710.0 207.7 706.3 207.7L706.3 207.7Q703.9 207.7 702.0 208.8Q700.2 209.8 699.1 211.8Q698.1 213.8 698.1 216.7ZM752.7 220.2L744.7 229.3L744.7 214.8L746.5 214.8L760.5 198.2L774.3 198.2L755.6 220.2L752.7 220.2ZM745.8 241.9L733.7 241.9L733.7 183.7L745.8 183.7L745.8 241.9ZM775.2 241.9L761.0 241.9L748.2 222.9L756.2 214.3L775.2 241.9ZM796.3 242.7L796.3 242.7Q789.6 242.7 784.7 240.0Q779.9 237.2 777.3 232.2Q774.7 227.2 774.7 220.3L774.7 220.3Q774.7 213.5 777.3 208.4Q779.9 203.4 784.7 200.5Q789.4 197.7 795.8 197.7L795.8 197.7Q800.2 197.7 803.9 199.1Q807.6 200.4 810.4 203.2Q813.2 205.9 814.8 210.1Q816.4 214.3 816.4 219.8L816.4 219.8L816.4 223.2L779.5 223.2L779.5 215.7L805.0 215.7Q805.0 213.0 803.8 211.0Q802.7 209.0 800.7 207.9Q798.7 206.7 796.0 206.7L796.0 206.7Q793.3 206.7 791.2 208.0Q789.1 209.2 787.9 211.4Q786.7 213.5 786.6 216.1L786.6 216.1L786.6 223.2Q786.6 226.4 787.8 228.8Q789.1 231.1 791.3 232.4Q793.5 233.7 796.5 233.7L796.5 233.7Q798.5 233.7 800.2 233.1Q801.9 232.6 803.1 231.4Q804.3 230.3 804.9 228.6L804.9 228.6L816.1 229.4Q815.2 233.4 812.6 236.4Q810.0 239.4 805.9 241.1Q801.7 242.7 796.3 242.7Z " />
  </clipPath>
  <defs>
    <pattern id="satori_pattern_id-0_0" x="0" y="0" width="1" height="1" patternUnits="objectBoundingBox">
      <linearGradient id="satori_biid-0_0" x1="0" y1="0" x2="1" y2="0">
        <stop offset="0%" stop-color="rgb(0,124,240)" />
        <stop offset="100%" stop-color="rgb(0,223,216)" />
      </linearGradient>
      <rect x="0" y="0" width="444" height="97" fill="url(#satori_biid-0_0)" />
    </pattern>
  </defs>
  <mask id="satori_om-id-0">
    <rect x="378" y="167" width="444" height="97" fill="#fff" />
  </mask>
  <rect x="378" y="167" width="444" height="97" fill="url(#satori_pattern_id-0_0)" clip-path="url(#satori_bct-id-0)" />
  <defs>
    <pattern id="satori_pattern_id-1_0" x="0" y="0" width="1" height="1" patternUnits="objectBoundingBox">
      <linearGradient id="satori_biid-1_0" x1="0" y1="0" x2="1" y2="0">
        <stop offset="0%" stop-color="rgb(121,40,202)" />
        <stop offset="100%" stop-color="rgb(255,0,128)" />
      </linearGradient>
      <rect x="0" y="0" width="80" height="20" fill="url(#satori_biid-1_0)" />
    </pattern>
  </defs>
  <mask id="satori_om-id-1">
    <rect x="560" y="304" width="80" height="20" fill="#fff" />
  </mask>
  <path x="560" y="304" width="80" height="20" fill="url(#satori_pattern_id-1_0)"
    d="M568,304 h64 a8,8 0 0 1 8,8 v4 a8,8 0 0 1 -8,8 h-64 a8,8 0 0 1 -8,-8 v-4 a8,8 0 0 1 8,-8" />
  <clipPath id="satori_bct-id-2">
    <path
      d="M247.4 438.9L235.1 438.9L235.1 380.7L273.6 380.7L273.6 390.8L247.4 390.8L247.4 404.7L271.0 404.7L271.0 414.8L247.4 414.8L247.4 438.9ZM304.9 420.3L304.9 420.3L304.9 395.2L317.0 395.2L317.0 438.9L305.4 438.9L305.4 431.0L304.9 431.0Q303.4 434.8 300.0 437.1Q296.6 439.4 291.7 439.4L291.7 439.4Q287.3 439.4 284.0 437.5Q280.6 435.5 278.8 431.8Q276.9 428.1 276.9 423.0L276.9 423.0L276.9 395.2L289.0 395.2L289.0 420.9Q289.0 424.7 291.1 427.0Q293.1 429.2 296.6 429.2L296.6 429.2Q298.7 429.2 300.6 428.2Q302.5 427.2 303.7 425.2Q304.9 423.2 304.9 420.3ZM324.6 380.7L336.7 380.7L336.7 438.9L324.6 438.9L324.6 380.7ZM344.4 380.7L356.5 380.7L356.5 438.9L344.4 438.9L344.4 380.7ZM400.5 407.7L400.5 407.7L389.4 408.4Q389.1 406.9 388.2 405.8Q387.2 404.6 385.7 404.0Q384.2 403.3 382.1 403.3L382.1 403.3Q379.3 403.3 377.3 404.4Q375.4 405.6 375.4 407.6L375.4 407.6Q375.4 409.1 376.7 410.2Q377.9 411.3 380.9 411.9L380.9 411.9L388.8 413.5Q395.2 414.8 398.3 417.7Q401.5 420.6 401.5 425.4L401.5 425.4Q401.5 429.6 398.9 432.9Q396.4 436.1 392.1 437.9Q387.7 439.7 382.0 439.7L382.0 439.7Q373.4 439.7 368.2 436.1Q363.1 432.5 362.2 426.2L362.2 426.2L374.1 425.6Q374.7 428.3 376.7 429.6Q378.8 431.0 382.1 431.0L382.1 431.0Q385.2 431.0 387.2 429.8Q389.1 428.5 389.2 426.6L389.2 426.6Q389.1 424.9 387.8 423.9Q386.4 422.8 383.6 422.2L383.6 422.2L376.0 420.7Q369.6 419.4 366.5 416.3Q363.4 413.1 363.4 408.3L363.4 408.3Q363.4 404.1 365.7 401.0Q368.0 398.0 372.1 396.3Q376.3 394.7 381.9 394.7L381.9 394.7Q390.2 394.7 394.9 398.2Q399.7 401.7 400.5 407.7ZM404.0 395.2L430.3 395.2L430.3 404.3L404.0 404.3L404.0 395.2ZM410 427.1L410 384.8L422.1 384.8L422.1 425.5Q422.1 427.1 422.6 428.1Q423.1 429.0 424.0 429.4Q425.0 429.7 426.2 429.7L426.2 429.7Q427.0 429.7 427.9 429.6Q428.8 429.4 429.2 429.3L429.2 429.3L431.1 438.3Q430.2 438.6 428.6 439.0Q426.9 439.4 424.5 439.5L424.5 439.5Q420.2 439.6 416.9 438.3Q413.6 437.0 411.8 434.2Q410.0 431.4 410 427.1L410 427.1ZM448.6 439.7L448.6 439.7Q444.4 439.7 441.2 438.2Q437.9 436.8 436.0 433.9Q434.1 431.0 434.1 426.7L434.1 426.7Q434.1 423.1 435.5 420.6Q436.8 418.1 439.1 416.6Q441.4 415.1 444.3 414.3Q447.3 413.6 450.5 413.3L450.5 413.3Q454.3 412.9 456.7 412.5Q459.0 412.1 460.0 411.4Q461.1 410.7 461.1 409.3L461.1 409.3L461.1 409.2Q461.1 406.5 459.4 405.0Q457.7 403.5 454.6 403.5L454.6 403.5Q451.4 403.5 449.4 404.9Q447.5 406.4 446.9 408.5L446.9 408.5L435.7 407.6Q436.5 403.7 439.0 400.7Q441.5 397.8 445.5 396.3Q449.4 394.7 454.7 394.7L454.7 394.7Q458.3 394.7 461.7 395.5Q465.0 396.4 467.6 398.2Q470.2 400.0 471.7 402.8Q473.2 405.6 473.2 409.4L473.2 409.4L473.2 438.9L461.7 438.9L461.7 432.8L461.4 432.8Q460.3 434.9 458.6 436.4Q456.8 438.0 454.3 438.8Q451.9 439.7 448.6 439.7ZM452.1 431.4L452.1 431.4Q454.8 431.4 456.8 430.3Q458.9 429.2 460.0 427.4Q461.2 425.6 461.2 423.3L461.2 423.3L461.2 418.7Q460.6 419.0 459.6 419.3Q458.7 419.6 457.4 419.9Q456.2 420.1 455.0 420.3Q453.8 420.5 452.8 420.6L452.8 420.6Q450.6 420.9 449.1 421.6Q447.5 422.3 446.6 423.4Q445.7 424.6 445.7 426.3L445.7 426.3Q445.7 428.8 447.5 430.1Q449.3 431.4 452.1 431.4ZM500.3 439.7L500.3 439.7Q493.6 439.7 488.8 436.9Q484.0 434.0 481.4 428.9Q478.8 423.9 478.8 417.2L478.8 417.2Q478.8 410.5 481.4 405.5Q484.0 400.4 488.8 397.5Q493.6 394.7 500.3 394.7L500.3 394.7Q506.0 394.7 510.3 396.7Q514.6 398.8 517.1 402.6Q519.6 406.3 519.8 411.4L519.8 411.4L508.4 411.4Q507.9 408.1 505.8 406.1Q503.8 404.1 500.5 404.1L500.5 404.1Q497.6 404.1 495.6 405.6Q493.5 407.1 492.3 410.0Q491.1 412.9 491.1 417.1L491.1 417.1Q491.1 421.2 492.3 424.2Q493.4 427.1 495.5 428.6Q497.6 430.2 500.5 430.2L500.5 430.2Q502.5 430.2 504.2 429.3Q505.9 428.5 507.0 426.8Q508.0 425.2 508.4 422.9L508.4 422.9L519.8 422.9Q519.5 427.9 517.1 431.7Q514.7 435.5 510.4 437.6Q506.1 439.7 500.3 439.7ZM544.6 417.2L536.6 426.3L536.6 411.8L538.3 411.8L552.3 395.2L566.2 395.2L547.4 417.2L544.6 417.2ZM537.7 438.9L525.6 438.9L525.6 380.7L537.7 380.7L537.7 438.9ZM567.0 438.9L552.9 438.9L540.0 419.9L548.1 411.3L567.0 438.9Z M610.3 438.9L610.3 438.9L589.6 438.9L589.6 380.7L610.4 380.7Q619.2 380.7 625.5 384.2Q631.9 387.7 635.3 394.2Q638.7 400.7 638.7 409.7L638.7 409.7Q638.7 418.8 635.3 425.4Q631.9 431.9 625.5 435.4Q619.1 438.9 610.3 438.9ZM601.9 391.2L601.9 428.3L609.7 428.3Q615.2 428.3 618.9 426.4Q622.7 424.4 624.6 420.3Q626.4 416.2 626.4 409.7L626.4 409.7Q626.4 403.3 624.6 399.2Q622.7 395.1 618.9 393.2Q615.2 391.2 609.8 391.2L609.8 391.2L601.9 391.2ZM665.5 439.7L665.5 439.7Q658.7 439.7 653.9 437.0Q649.1 434.2 646.4 429.2Q643.8 424.2 643.8 417.3L643.8 417.3Q643.8 410.5 646.4 405.4Q649.1 400.4 653.8 397.5Q658.6 394.7 665.0 394.7L665.0 394.7Q669.3 394.7 673.0 396.1Q676.8 397.4 679.6 400.2Q682.4 402.9 683.9 407.1Q685.5 411.3 685.5 416.8L685.5 416.8L685.5 420.2L648.7 420.2L648.7 412.7L674.1 412.7Q674.1 410.0 673.0 408.0Q671.8 406.0 669.8 404.9Q667.8 403.7 665.2 403.7L665.2 403.7Q662.4 403.7 660.3 405.0Q658.2 406.2 657.0 408.4Q655.8 410.5 655.8 413.1L655.8 413.1L655.8 420.2Q655.8 423.4 657.0 425.8Q658.2 428.1 660.4 429.4Q662.6 430.7 665.7 430.7L665.7 430.7Q667.7 430.7 669.4 430.1Q671.0 429.6 672.2 428.4Q673.4 427.3 674.1 425.6L674.1 425.6L685.2 426.4Q684.4 430.4 681.8 433.4Q679.1 436.4 675.0 438.1Q670.9 439.7 665.5 439.7ZM718.0 395.2L730.9 395.2L715.6 438.9L702.0 438.9L686.7 395.2L699.5 395.2L708.6 426.5L709.0 426.5L718.0 395.2ZM753.5 439.7L753.5 439.7Q746.8 439.7 741.9 437.0Q737.1 434.2 734.5 429.2Q731.8 424.2 731.8 417.3L731.8 417.3Q731.8 410.5 734.5 405.4Q737.1 400.4 741.8 397.5Q746.6 394.7 753.0 394.7L753.0 394.7Q757.3 394.7 761.1 396.1Q764.8 397.4 767.6 400.2Q770.4 402.9 772.0 407.1Q773.5 411.3 773.5 416.8L773.5 416.8L773.5 420.2L736.7 420.2L736.7 412.7L762.1 412.7Q762.1 410.0 761.0 408.0Q759.9 406.0 757.8 404.9Q755.8 403.7 753.2 403.7L753.2 403.7Q750.4 403.7 748.3 405.0Q746.2 406.2 745.0 408.4Q743.8 410.5 743.8 413.1L743.8 413.1L743.8 420.2Q743.8 423.4 745.0 425.8Q746.2 428.1 748.4 429.4Q750.6 430.7 753.7 430.7L753.7 430.7Q755.7 430.7 757.4 430.1Q759.1 429.6 760.3 428.4Q761.4 427.3 762.1 425.6L762.1 425.6L773.3 426.4Q772.4 430.4 769.8 433.4Q767.2 436.4 763.0 438.1Q758.9 439.7 753.5 439.7ZM779.4 380.7L791.5 380.7L791.5 438.9L779.4 438.9L779.4 380.7ZM818.9 439.7L818.9 439.7Q812.3 439.7 807.5 436.9Q802.6 434.1 800.0 429.0Q797.4 423.9 797.4 417.2L797.4 417.2Q797.4 410.5 800.0 405.4Q802.6 400.3 807.5 397.5Q812.3 394.7 818.9 394.7L818.9 394.7Q825.5 394.7 830.3 397.5Q835.1 400.3 837.8 405.4Q840.4 410.5 840.4 417.2L840.4 417.2Q840.4 423.9 837.8 429.0Q835.1 434.1 830.3 436.9Q825.5 439.7 818.9 439.7ZM818.9 430.4L818.9 430.4Q822.0 430.4 824.0 428.6Q826.0 426.9 827.0 423.9Q828.1 421.0 828.1 417.1L828.1 417.1Q828.1 413.3 827.0 410.4Q826.0 407.4 824.0 405.6Q822.0 403.9 818.9 403.9L818.9 403.9Q815.9 403.9 813.8 405.6Q811.8 407.4 810.8 410.4Q809.7 413.3 809.7 417.1L809.7 417.1Q809.7 421.0 810.8 423.9Q811.8 426.9 813.8 428.6Q815.9 430.4 818.9 430.4ZM858.4 455.2L846.3 455.2L846.3 395.2L858.2 395.2L858.2 402.6L858.7 402.6Q859.5 400.8 861.1 399.0Q862.6 397.1 865.0 395.9Q867.5 394.7 871.2 394.7L871.2 394.7Q875.9 394.7 880.0 397.2Q884.0 399.6 886.4 404.6Q888.8 409.6 888.8 417.1L888.8 417.1Q888.8 424.4 886.5 429.4Q884.1 434.4 880.1 437.0Q876.1 439.6 871.1 439.6L871.1 439.6Q867.6 439.6 865.1 438.4Q862.7 437.3 861.1 435.5Q859.6 433.7 858.7 431.9L858.7 431.9L858.4 431.9L858.4 455.2ZM858.1 417.1L858.1 417.1Q858.1 421.0 859.2 423.9Q860.3 426.7 862.3 428.4Q864.4 430.0 867.3 430.0L867.3 430.0Q870.2 430.0 872.3 428.3Q874.3 426.7 875.4 423.8Q876.5 420.9 876.5 417.1L876.5 417.1Q876.5 413.3 875.4 410.4Q874.4 407.5 872.3 405.9Q870.3 404.3 867.3 404.3L867.3 404.3Q864.3 404.3 862.3 405.9Q860.3 407.4 859.2 410.3Q858.1 413.2 858.1 417.1ZM914.8 439.7L914.8 439.7Q908.0 439.7 903.2 437.0Q898.3 434.2 895.7 429.2Q893.1 424.2 893.1 417.3L893.1 417.3Q893.1 410.5 895.7 405.4Q898.3 400.4 903.1 397.5Q907.8 394.7 914.3 394.7L914.3 394.7Q918.6 394.7 922.3 396.1Q926.1 397.4 928.9 400.2Q931.7 402.9 933.2 407.1Q934.8 411.3 934.8 416.8L934.8 416.8L934.8 420.2L897.9 420.2L897.9 412.7L923.4 412.7Q923.4 410.0 922.3 408.0Q921.1 406.0 919.1 404.9Q917.1 403.7 914.5 403.7L914.5 403.7Q911.7 403.7 909.6 405.0Q907.5 406.2 906.3 408.4Q905.1 410.5 905.1 413.1L905.1 413.1L905.1 420.2Q905.1 423.4 906.3 425.8Q907.5 428.1 909.7 429.4Q911.9 430.7 914.9 430.7L914.9 430.7Q917.0 430.7 918.6 430.1Q920.3 429.6 921.5 428.4Q922.7 427.3 923.3 425.6L923.3 425.6L934.5 426.4Q933.7 430.4 931.0 433.4Q928.4 436.4 924.3 438.1Q920.1 439.7 914.8 439.7ZM952.8 438.9L940.7 438.9L940.7 395.2L952.4 395.2L952.4 402.9L952.9 402.9Q954.1 398.8 956.9 396.7Q959.7 394.6 963.3 394.6L963.3 394.6Q964.3 394.6 965.3 394.7Q966.4 394.8 967.2 395.0L967.2 395.0L967.2 405.8Q966.3 405.5 964.8 405.3Q963.3 405.1 962.0 405.1L962.0 405.1Q959.4 405.1 957.3 406.3Q955.2 407.4 954.0 409.5Q952.8 411.5 952.8 414.2L952.8 414.2L952.8 438.9Z " />
  </clipPath>
  <defs>
    <pattern id="satori_pattern_id-2_0" x="0" y="0" width="1" height="1" patternUnits="objectBoundingBox">
      <linearGradient id="satori_biid-2_0" x1="0" y1="0" x2="1" y2="0">
        <stop offset="0%" stop-color="rgb(255,77,77)" />
        <stop offset="100%" stop-color="rgb(249,203,40)" />
      </linearGradient>
      <rect x="0" y="0" width="740" height="97" fill="url(#satori_biid-2_0)" />
    </pattern>
  </defs>
  <mask id="satori_om-id-2">
    <rect x="230" y="364" width="740" height="97" fill="#fff" />
  </mask>
  <rect x="230" y="364" width="740" height="97" fill="url(#satori_pattern_id-2_0)" clip-path="url(#satori_bct-id-2)" />
</svg>